<svg xmlns="http://www.w3.org/2000/svg" width="512" height="512" viewBox="0 0 512 512"><defs><linearGradient id="g" x1="0" y1="0" x2="0" y2="1"><stop offset="0" stop-color="#3A3E47"/><stop offset="1" stop-color="#17191E"/></linearGradient></defs><rect width="512" height="512" fill="url(#g)"/><rect x="111.0" y="111.0" width="62" height="62" rx="31.0" fill="#C9CCD3"/><rect x="187.0" y="111.0" width="62" height="62" rx="31.0" fill="#C9CCD3"/><rect x="263.0" y="111.0" width="62" height="62" rx="31.0" fill="#C9CCD3"/><rect x="339.0" y="111.0" width="62" height="62" rx="31.0" fill="#FF9F0A"/><rect x="111.0" y="187.0" width="62" height="62" rx="31.0" fill="#4A4E57"/><rect x="187.0" y="187.0" width="62" height="62" rx="31.0" fill="#4A4E57"/><rect x="263.0" y="187.0" width="62" height="62" rx="31.0" fill="#4A4E57"/><rect x="339.0" y="187.0" width="62" height="62" rx="31.0" fill="#FF9F0A"/><rect x="111.0" y="263.0" width="62" height="62" rx="31.0" fill="#4A4E57"/><rect x="187.0" y="263.0" width="62" height="62" rx="31.0" fill="#4A4E57"/><rect x="263.0" y="263.0" width="62" height="62" rx="31.0" fill="#4A4E57"/><rect x="339.0" y="263.0" width="62" height="62" rx="31.0" fill="#FF9F0A"/><rect x="111.0" y="339.0" width="138" height="62" rx="31.0" fill="#4A4E57"/><rect x="263.0" y="339.0" width="62" height="62" rx="31.0" fill="#4A4E57"/><rect x="339.0" y="339.0" width="62" height="62" rx="31.0" fill="#FF9F0A"/><path d="M358.0 142.0h24" stroke="#fff" stroke-width="7" stroke-linecap="round" fill="none"/><circle cx="370.0" cy="131.0" r="4" fill="#fff"/><circle cx="370.0" cy="153.0" r="4" fill="#fff"/><path d="M361.0 209.0l18 18M379.0 209.0l-18 18" stroke="#fff" stroke-width="7" stroke-linecap="round" fill="none"/><path d="M358.0 294.0h24M370.0 282.0v24" stroke="#fff" stroke-width="7" stroke-linecap="round" fill="none"/><path d="M358.0 364.0h24M358.0 376.0h24" stroke="#fff" stroke-width="7" stroke-linecap="round" fill="none"/></svg>
